<svg width="44" height="44" viewBox="0 0 44 44" fill="none" xmlns="http://www.w3.org/2000/svg">
<g filter="url(#filter0_d_3408_1141)">
<rect x="2" y="1.00049" width="40" height="40" rx="8" fill="white" shape-rendering="crispEdges"/>
<rect x="2.5" y="1.50049" width="39" height="39" rx="7.5" stroke="#EAECF0" shape-rendering="crispEdges"/>
<g clip-path="url(#clip0_3408_1141)">
<path d="M22.0002 23.5005L19.5002 21.0005M22.0002 23.5005C23.1642 23.0578 24.2809 22.4995 25.3335 21.8339M22.0002 23.5005V27.6672C22.0002 27.6672 24.5252 27.2089 25.3335 26.0005C26.2335 24.6505 25.3335 21.8339 25.3335 21.8339M19.5002 21.0005C19.9436 19.8501 20.502 18.7473 21.1668 17.7089C22.1378 16.1564 23.4898 14.8781 25.0943 13.9956C26.6988 13.1131 28.5024 12.6558 30.3335 12.6672C30.3335 14.9339 29.6835 18.9172 25.3335 21.8339M19.5002 21.0005H15.3335C15.3335 21.0005 15.7918 18.4755 17.0002 17.6672C18.3502 16.7672 21.1668 17.6672 21.1668 17.6672M15.7502 24.7505C14.5002 25.8005 14.0835 28.9172 14.0835 28.9172C14.0835 28.9172 17.2002 28.5005 18.2502 27.2505C18.8418 26.5505 18.8335 25.4755 18.1752 24.8255C17.8513 24.5164 17.4246 24.3377 16.977 24.3239C16.5295 24.31 16.0926 24.462 15.7502 24.7505Z" stroke="#15B7B7" stroke-width="1.66667" stroke-linecap="round" stroke-linejoin="round"/>
</g>
</g>
<defs>
<filter id="filter0_d_3408_1141" x="0" y="0.000488281" width="44" height="44" filterUnits="userSpaceOnUse" color-interpolation-filters="sRGB">
<feFlood flood-opacity="0" result="BackgroundImageFix"/>
<feColorMatrix in="SourceAlpha" type="matrix" values="0 0 0 0 0 0 0 0 0 0 0 0 0 0 0 0 0 0 127 0" result="hardAlpha"/>
<feOffset dy="1"/>
<feGaussianBlur stdDeviation="1"/>
<feComposite in2="hardAlpha" operator="out"/>
<feColorMatrix type="matrix" values="0 0 0 0 0.0627451 0 0 0 0 0.0941176 0 0 0 0 0.156863 0 0 0 0.05 0"/>
<feBlend mode="normal" in2="BackgroundImageFix" result="effect1_dropShadow_3408_1141"/>
<feBlend mode="normal" in="SourceGraphic" in2="effect1_dropShadow_3408_1141" result="shape"/>
</filter>
<clipPath id="clip0_3408_1141">
<rect width="20" height="20" fill="white" transform="translate(12 11.0005)"/>
</clipPath>
</defs>
</svg>
