<svg width="40" height="40" viewBox="0 0 40 40" fill="none" xmlns="http://www.w3.org/2000/svg">
  <circle cx="20" cy="20" r="19.5" stroke="#D0D5DD"/>
  <path d="M27.5 25V20C27.5 15.8579 24.1421 12.5 20 12.5C15.8579 12.5 12.5 15.8579 12.5 20V25M14.5833 27.5C13.4327 27.5 12.5 26.5673 12.5 25.4167V23.75C12.5 22.5994 13.4327 21.6667 14.5833 21.6667C15.7339 21.6667 16.6667 22.5994 16.6667 23.75V25.4167C16.6667 26.5673 15.7339 27.5 14.5833 27.5ZM25.4167 27.5C24.2661 27.5 23.3333 26.5673 23.3333 25.4167V23.75C23.3333 22.5994 24.2661 21.6667 25.4167 21.6667C26.5673 21.6667 27.5 22.5994 27.5 23.75V25.4167C27.5 26.5673 26.5673 27.5 25.4167 27.5Z" stroke="#182230" stroke-width="1.66667" stroke-linecap="round" stroke-linejoin="round"/>
</svg>
